<?xml version="1.0" encoding="utf-8"?>
<!-- Generator: Adobe Illustrator 16.0.0, SVG Export Plug-In . SVG Version: 6.00 Build 0)  -->
<!DOCTYPE svg PUBLIC "-//W3C//DTD SVG 1.1//EN" "http://www.w3.org/Graphics/SVG/1.1/DTD/svg11.dtd">
<svg version="1.1" id="Layer_1" xmlns="http://www.w3.org/2000/svg" xmlns:xlink="http://www.w3.org/1999/xlink" x="0px" y="0px"
	 width="100px" height="60.833px" viewBox="0 0 100 60.833" enable-background="new 0 0 100 60.833" xml:space="preserve">
<g>
	<path fill-rule="evenodd" clip-rule="evenodd" fill="#FFFFFF" d="M79.738,49.195C69.854,48.753,59.923,49.216,50,49.563
		c-9.923-0.347-19.853-0.81-29.738-0.368c-6.733-0.64-13.438-1.817-20.097-3.868c1.545,8.034,6.559,11.741,17.121,11.794
		C28.19,57.178,39.095,57.165,50,57.13c10.905,0.034,21.81,0.048,32.715-0.01c10.562-0.053,15.575-3.76,17.121-11.794
		C93.177,47.377,86.472,48.555,79.738,49.195z"/>
	<path fill-rule="evenodd" clip-rule="evenodd" fill="#FFFFFF" d="M79.923,42.187c-20.995,0-39.958,0-59.846,0
		c0.687-3.11,1.231-6.156,2.047-9.129c1.942-7.085,3.79-14.209,6.097-21.177c2.07-6.252,6.767-8.483,12.071-5.089
		c5.807,3.716,10.361,3.546,15.853-0.562c4.349-3.254,9.33-1.833,11.423,3.083C71.932,19.575,75.473,30.185,79.923,42.187z"/>
</g>
</svg>
